<svg width="259" height="252" viewBox="0 0 259 252" fill="none" xmlns="http://www.w3.org/2000/svg">
<path d="M124.5 252C191.879 252 246.5 197.603 246.5 130.5C246.5 63.3974 191.879 9 124.5 9C57.1213 9 2.5 63.3974 2.5 130.5C2.5 197.603 57.1213 252 124.5 252Z" fill="url(#paint0_linear_1216_4654)"/>
<path fill-rule="evenodd" clip-rule="evenodd" d="M222.005 76.2009C226.132 73.1732 227.023 67.3731 223.996 63.2461C220.968 59.1191 215.168 58.2279 211.041 61.2557C206.914 64.2834 206.023 70.0835 209.05 74.2105C210.918 76.7559 213.84 78.0703 216.773 77.9936C216.983 77.9704 217.2 77.9572 217.421 77.954C219.026 77.7993 220.611 77.2237 222.005 76.2009ZM179.674 78.7029C188.824 80.7404 197.144 82.0124 205.505 80.8768C204.705 80.1499 203.966 79.3327 203.302 78.4275C197.945 71.1259 199.522 60.8643 206.824 55.5075C214.126 50.1508 224.387 51.7274 229.744 59.029C232.53 62.8274 233.441 67.4267 232.645 71.7199C239.257 67.9804 245.143 63.2562 249.715 57.2153C250.904 55.6455 253.13 55.3878 254.689 56.6397C256.248 57.8915 256.548 60.179 255.36 61.7488C247.104 72.656 235.571 79.0459 223.688 83.4801C222.002 84.3014 220.22 84.8101 218.42 85.0181C204.961 89.8978 191.075 88.721 178.102 85.8324C176.197 85.4082 175.005 83.4684 175.439 81.4997C175.873 79.5309 177.769 78.2787 179.674 78.7029Z" fill="black"/>
<path d="M196 78.5002C196 55.0281 176.972 36.0002 153.5 36.0002H113V121H153.5C176.972 121 196 101.972 196 78.5002Z" fill="url(#paint1_linear_1216_4654)"/>
<path d="M148.408 105.556C142.387 117.231 132.307 124.876 120.895 124.876H109.872C91.4193 124.876 76.4558 104.883 76.4558 80.228C76.4558 55.5733 91.4193 35.5872 109.872 35.5803H120.93C132.342 35.5803 142.435 43.2112 148.443 54.9004C152.315 62.7795 154.329 71.4418 154.329 80.2211C154.329 89.0004 152.315 97.6627 148.443 105.542L148.408 105.556Z" fill="black"/>
<path d="M137.26 105.556C131.253 117.21 121.194 124.848 109.803 124.876C91.3641 124.876 76.4214 104.869 76.4214 80.2281C76.4214 55.5872 91.3641 35.6082 109.803 35.5804C121.194 35.5804 131.253 43.2113 137.26 54.9005C141.138 62.7782 143.154 71.4411 143.154 80.2212C143.154 89.0013 141.138 97.6642 137.26 105.542V105.556Z" fill="#E1DCEB"/>
<path d="M110.802 88.46C109.176 85.5403 106.452 83.6268 103.368 83.6199C98.3755 83.6199 94.3296 88.632 94.3296 94.8051C94.3296 100.978 98.3755 105.983 103.368 105.99C106.452 105.99 109.176 104.079 110.802 101.15C111.852 99.1767 112.398 97.0065 112.398 94.8069C112.398 92.6073 111.852 90.437 110.802 88.4635V88.46Z" fill="white"/>
<path d="M110.802 58.3457C109.176 55.426 106.452 53.5126 103.368 53.5056C98.3755 53.5056 94.3296 58.5178 94.3296 64.6909C94.3296 70.864 98.3755 75.8692 103.368 75.8761C106.452 75.8761 109.176 73.9644 110.802 71.036C111.852 69.0625 112.398 66.8922 112.398 64.6926C112.398 62.493 111.852 60.3228 110.802 58.3492V58.3457Z" fill="white"/>
<path d="M73 95.4748C73 99.631 76.3692 103 80.5254 103H102C106.418 103 110 99.4185 110 95.0002C110 90.582 106.418 87.0002 102 87.0002H80.5254C76.3692 87.0002 73 90.3695 73 94.5257V95.4748Z" fill="black"/>
<path d="M73 64.5002C73 68.6424 76.3579 72.0002 80.5 72.0002H102.5C106.642 72.0002 110 68.6424 110 64.5002C110 60.3581 106.642 57.0002 102.5 57.0002H80.5C76.3579 57.0002 73 60.3581 73 64.5002Z" fill="black"/>
<path fill-rule="evenodd" clip-rule="evenodd" d="M133.852 118.179H154.337V121.179H133.852V118.179Z" fill="black"/>
<path fill-rule="evenodd" clip-rule="evenodd" d="M2.35687 182.844C19.6521 172.459 39.2449 170.482 58.0038 171.103C60.6842 171.192 62.7852 173.437 62.6964 176.117C62.6075 178.798 60.3626 180.899 57.6822 180.81C39.6788 180.213 22.3041 182.195 7.35666 191.171C5.05743 192.551 2.0743 191.807 0.693645 189.507C-0.68701 187.208 0.0576397 184.225 2.35687 182.844Z" fill="black"/>
<path d="M44 176C44 152.804 62.804 134 86 134H127V218H86C62.804 218 44 199.196 44 176Z" fill="url(#paint2_linear_1216_4654)"/>
<path d="M84.9615 203.685C90.9899 215.361 101.07 223.005 112.481 223.005H123.539C141.992 223.005 156.956 203.012 156.956 178.358C156.956 153.703 141.992 133.717 123.539 133.71H112.481C101.07 133.71 90.976 141.341 84.9615 153.03C81.0202 160.887 79.0016 169.568 79.0718 178.358C79.0016 187.147 81.0202 195.828 84.9615 203.685Z" fill="black"/>
<path d="M96.1087 203.685C102.123 215.34 112.175 222.978 123.573 223.005C142.012 223.005 156.955 202.999 156.955 178.358C156.955 153.717 142.012 133.738 123.573 133.717C112.175 133.717 102.123 141.348 96.1087 153.03C92.1674 160.887 90.1488 169.568 90.2191 178.358C90.1488 187.147 92.1674 195.828 96.1087 203.685Z" fill="#E1DCEB"/>
<path d="M126.595 184.287C131.109 184.287 134.769 189.102 134.769 195.042C134.769 200.982 131.109 205.797 126.595 205.797C122.08 205.797 118.421 200.982 118.421 195.042C118.421 189.102 122.08 184.287 126.595 184.287Z" fill="white"/>
<path d="M126.595 149.871C131.109 149.871 134.769 154.686 134.769 160.626C134.769 166.566 131.109 171.381 126.595 171.381C122.08 171.381 118.421 166.566 118.421 160.626C118.421 154.686 122.08 149.871 126.595 149.871Z" fill="white"/>
<path fill-rule="evenodd" clip-rule="evenodd" d="M82.0989 215.216H99.3499V218.216H82.0989V215.216Z" fill="black"/>
<path fill-rule="evenodd" clip-rule="evenodd" d="M213.072 21.503C214.378 16.2086 214.293 11.1102 214.449 5.73999C214.48 4.69122 213.653 3.8193 212.605 3.78771C211.555 3.75613 210.679 4.58379 210.648 5.63256C210.5 10.7247 210.62 15.5705 209.381 20.5995C209.13 21.6167 209.754 22.6465 210.773 22.8929C211.791 23.1456 212.822 22.5202 213.072 21.503Z" fill="black"/>
<path fill-rule="evenodd" clip-rule="evenodd" d="M224.168 31.7631C233.027 23.6889 241.375 13.3024 247.21 2.8148C247.719 1.89871 247.387 0.742496 246.47 0.237068C245.552 -0.26836 244.394 0.0601959 243.885 0.976286C238.243 11.1164 230.17 21.1618 221.603 28.9644C220.828 29.672 220.774 30.8724 221.482 31.6431C222.19 32.4139 223.393 32.4707 224.168 31.7631Z" fill="black"/>
<path fill-rule="evenodd" clip-rule="evenodd" d="M226.412 40.5829C234.515 41.916 242.867 39.6416 250.235 36.4258C251.197 36.0025 251.635 34.8843 251.215 33.9303C250.794 32.97 249.672 32.534 248.711 32.951C242 35.8825 234.411 38.0558 227.031 36.8428C225.996 36.6722 225.017 37.3735 224.846 38.4033C224.675 39.4331 225.377 40.4123 226.412 40.5829Z" fill="black"/>
<path fill-rule="evenodd" clip-rule="evenodd" d="M3.14832 233.552C4.30281 233.141 5.51771 232.594 6.45457 231.802C7.56726 230.862 8.01978 229.651 8.32366 228.377C8.7138 226.739 8.86969 224.995 9.34277 223.355C9.51793 222.746 9.85503 222.515 9.99967 222.413C10.3653 222.155 10.7348 222.086 11.0825 222.112C11.4945 222.142 12.0605 222.298 12.4327 222.988C12.4858 223.087 12.5548 223.238 12.6012 223.444C12.6351 223.596 12.657 224.069 12.6928 224.264C12.7824 224.744 12.8573 225.224 12.9277 225.708C13.1619 227.315 13.2966 228.681 14.0364 230.158C15.0403 232.163 16.0462 233.39 17.4103 233.933C18.7294 234.458 20.3065 234.36 22.3215 233.948C22.5133 233.901 22.703 233.861 22.8908 233.829C23.7792 233.674 24.6285 234.257 24.803 235.142C24.9775 236.026 24.4129 236.888 23.5324 237.083C23.3486 237.123 23.1675 237.162 22.9884 237.197C20.2653 237.871 17.113 240.277 15.2811 242.383C14.7165 243.033 13.8898 244.849 13.0465 246.007C12.4241 246.862 11.7247 247.425 11.1376 247.624C10.7441 247.758 10.4124 247.738 10.1383 247.67C9.74023 247.572 9.40982 247.356 9.15636 247.013C9.01835 246.825 8.89027 246.574 8.82923 246.253C8.80003 246.098 8.79673 245.705 8.7974 245.528C8.62555 244.936 8.41522 244.359 8.26195 243.763C7.89636 242.339 7.1791 241.438 6.32717 240.248C5.5303 239.134 4.67441 238.434 3.41973 237.875C3.25651 237.836 1.93946 237.513 1.47434 237.328C0.794918 237.057 0.471112 236.602 0.353672 236.357C0.153958 235.942 0.133408 235.579 0.173218 235.277C0.23227 234.83 0.432648 234.448 0.788285 234.139C1.00857 233.948 1.33767 233.761 1.77823 233.67C2.11861 233.599 3.02159 233.558 3.14832 233.552ZM10.8748 231.232C10.9358 231.368 11.0009 231.505 11.0699 231.643C12.5402 234.58 14.1844 236.219 16.1828 237.015L16.2498 237.041C14.9129 238.033 13.7026 239.143 12.7777 240.206C12.3969 240.644 11.8926 241.554 11.3479 242.487C10.8529 240.878 10.0434 239.741 9.02564 238.317C8.24801 237.231 7.43324 236.414 6.43201 235.748C7.20897 235.349 7.95009 234.882 8.59568 234.336C9.67055 233.428 10.3812 232.376 10.8748 231.232Z" fill="#E3E3E3"/>
<defs>
<linearGradient id="paint0_linear_1216_4654" x1="123.56" y1="-30.5634" x2="126.038" y2="396.126" gradientUnits="userSpaceOnUse">
<stop stop-color="#F2F2F2"/>
<stop offset="1" stop-color="#EFEFEF"/>
</linearGradient>
<linearGradient id="paint1_linear_1216_4654" x1="196" y1="35.8638" x2="110.856" y2="102.38" gradientUnits="userSpaceOnUse">
<stop stop-color="#E1DCEB"/>
<stop offset="1" stop-color="#B3AFBA"/>
</linearGradient>
<linearGradient id="paint2_linear_1216_4654" x1="44" y1="133.865" x2="128.378" y2="200.568" gradientUnits="userSpaceOnUse">
<stop stop-color="#E1DCEB"/>
<stop offset="1" stop-color="#B3AFBA"/>
</linearGradient>
</defs>
</svg>
