<svg width="268" height="279" viewBox="0 0 268 279" fill="none" xmlns="http://www.w3.org/2000/svg">
<path fill-rule="evenodd" clip-rule="evenodd" d="M224.63 47.9521C226.732 42.6125 227.356 37.2827 228.27 31.7033C228.448 30.6137 227.708 29.5887 226.619 29.4092C225.528 29.2295 224.499 29.9704 224.32 31.06C223.454 36.3505 222.901 41.4215 220.906 46.4937C220.502 47.5195 221.009 48.6809 222.037 49.0803C223.064 49.4863 224.227 48.978 224.63 47.9521Z" fill="#303030"/>
<path fill-rule="evenodd" clip-rule="evenodd" d="M234.768 60.2047C245.138 53.0216 255.297 43.3552 262.849 33.2319C263.507 32.3475 263.323 31.0952 262.437 30.4398C261.551 29.7844 260.297 29.9651 259.638 30.8495C252.335 40.6373 242.51 49.9863 232.484 56.927C231.578 57.5568 231.354 58.8013 231.984 59.7042C232.615 60.6071 233.862 60.8345 234.768 60.2047Z" fill="#303030"/>
<path fill-rule="evenodd" clip-rule="evenodd" d="M235.876 69.7177C244.142 72.2409 253.171 71.0362 261.306 68.7121C262.368 68.4049 262.981 67.2999 262.677 66.2461C262.372 65.1857 261.262 64.5741 260.201 64.8746C252.793 66.9942 244.573 68.2001 237.045 65.9032C235.989 65.5805 234.87 66.1751 234.548 67.2254C234.225 68.2756 234.821 69.3951 235.876 69.7177Z" fill="#303030"/>
<path d="M30.1146 185.012L30.1145 185.012C29.8343 184.147 28.9036 183.668 28.0349 183.946C27.1654 184.221 26.6859 185.151 26.9668 186.018C28.838 191.796 32.3925 196.199 37.5875 199.331C38.3685 199.804 39.3863 199.551 39.8573 198.776L39.8576 198.776C40.3309 197.995 40.0787 196.979 39.2952 196.511C34.7947 193.798 31.7315 190.008 30.1146 185.012Z" fill="#303030" stroke="black"/>
<path d="M31.0136 211.301C34.8535 208.927 41.551 209.076 48.5503 210.088C58.0313 211.459 68.056 214.549 72.763 215.999C73.4668 216.216 74.0516 216.397 74.4981 216.529L31.0136 211.301ZM31.0136 211.301L31.2765 211.727C31.2765 211.727 31.2766 211.727 31.2766 211.727L31.0136 211.301ZM26.3274 243.928L26.3276 243.928C27.2175 244.562 27.8502 245.382 28.0445 246.324L26.3274 243.928ZM26.3274 243.928C25.4779 243.323 24.3529 242.872 23.2557 242.564M26.3274 243.928L23.2557 242.564M23.2557 242.564C22.2692 242.288 21.273 242.118 20.4655 242.061L23.2557 242.564ZM74.7825 213.295L74.5281 213.725L74.7842 213.296C74.7836 213.295 74.7831 213.295 74.7825 213.295ZM18.7888 245.535C19.5471 246.59 20.3953 247.585 21.333 248.498C21.7896 248.943 22.8199 249.813 23.8493 250.182C24.972 250.589 26.1494 250.48 27.0038 249.53L27.004 249.53C28.0026 248.419 28.2494 247.313 28.0446 246.324L18.7888 245.535ZM3.36113 264.095C3.36115 264.095 3.36118 264.095 3.3612 264.095C3.36122 264.095 3.36123 264.095 3.36125 264.095L3.85399 264.011L3.36113 264.095ZM17.479 242.457C17.313 242.499 17.1481 242.543 16.9843 242.589C17.0628 242.741 17.143 242.892 17.2248 243.041C17.3899 242.996 17.5562 242.952 17.7235 242.911C17.6404 242.76 17.5589 242.609 17.479 242.457ZM66.899 211.336C66.4742 211.216 66.0395 211.094 65.5957 210.971C65.9523 211.248 66.3115 211.521 66.6738 211.792C67.1496 211.926 67.6131 212.059 68.0631 212.19C67.6716 211.909 67.2837 211.624 66.899 211.336ZM31.5963 171.114C31.5959 171.114 31.5955 171.114 31.5951 171.114C31.5947 171.115 31.5942 171.115 31.5938 171.115L31.8181 171.562L31.5963 171.114ZM76.0554 217.312C76.0561 217.311 76.0568 217.311 76.0575 217.311C76.0595 217.311 76.0615 217.311 76.0634 217.31L75.9874 216.816L76.0554 217.312ZM18.854 238.679C18.854 238.679 18.854 238.679 18.854 238.679L18.3859 238.855L18.854 238.679ZM24.4077 246.609L24.4082 246.609C24.5514 246.711 24.652 246.789 24.7227 246.862C24.7761 246.918 24.7946 246.953 24.8013 246.972C24.7992 246.977 24.7957 246.986 24.7898 246.998C24.7889 246.999 24.788 247.001 24.787 247.003C24.784 247.002 24.7813 247.001 24.7788 246.999C24.3587 246.783 23.9451 246.431 23.6966 246.196C23.9591 246.322 24.1999 246.46 24.4077 246.609Z" fill="#303030" stroke="black"/>
<path d="M114.542 51.4607C114.025 49.3167 110.975 49.3167 110.458 51.4607L109.787 54.2379C109.602 55.0041 109.004 55.6023 108.238 55.7872L105.461 56.4576C103.317 56.9752 103.317 60.0248 105.461 60.5424L108.238 61.2128C109.004 61.3977 109.602 61.9959 109.787 62.7621L110.458 65.5393C110.975 67.6833 114.025 67.6833 114.542 65.5393L115.213 62.7621C115.398 61.9959 115.996 61.3977 116.762 61.2128L119.539 60.5424C121.683 60.0248 121.683 56.9752 119.539 56.4576L116.762 55.7872C115.996 55.6023 115.398 55.0041 115.213 54.2379L114.542 51.4607Z" fill="#CCC6D9"/>
<circle cx="204" cy="199" r="6" fill="#CCC6D9"/>
<path d="M89.1346 120.84C90.6511 109.482 95.0105 98.6947 101.806 89.4837C108.602 80.2727 117.612 72.9386 127.997 68.1655C138.382 63.3924 149.803 61.3359 161.194 62.1877C172.585 63.0396 183.575 66.7721 193.14 73.0371L219.199 64.1497C219.985 63.8898 220.829 63.8612 221.631 64.0672C222.433 64.2733 223.159 64.7054 223.723 65.3124C224.288 65.9194 224.668 66.676 224.818 67.4927C224.967 68.3093 224.881 69.1519 224.568 69.9207L214.118 94.9286C219.676 104.218 222.935 114.707 223.622 125.519C224.31 136.331 222.406 147.151 218.07 157.074C213.733 166.996 207.091 175.732 198.698 182.55C190.306 189.368 180.407 194.07 169.832 196.263C159.256 198.456 148.31 198.075 137.911 195.153C127.512 192.23 117.962 186.851 110.061 179.466C102.159 172.081 96.136 162.905 92.4952 152.705C88.8544 142.505 87.7021 131.579 89.1346 120.84Z" fill="#303030"/>
<path d="M44.5975 151.16C46.114 162.518 50.4734 173.305 57.2691 182.516C64.0648 191.727 73.0753 199.061 83.4601 203.835C93.8448 208.608 105.266 210.664 116.657 209.812C128.048 208.96 139.038 205.228 148.603 198.963L174.662 207.85C175.448 208.11 176.292 208.139 177.094 207.933C177.895 207.727 178.622 207.295 179.186 206.688C179.751 206.081 180.131 205.324 180.28 204.507C180.43 203.691 180.343 202.848 180.031 202.079L169.58 177.071C175.139 167.782 178.398 157.293 179.085 146.481C179.773 135.669 177.869 124.849 173.533 114.926C169.196 105.004 162.554 96.2683 154.161 89.45C145.769 82.6318 135.87 77.9296 125.295 75.7369C114.719 73.5443 103.773 73.9251 93.3742 76.8474C82.9752 79.7697 73.4252 85.1485 65.5237 92.5336C57.6221 99.9187 51.5989 109.095 47.9581 119.295C44.3173 129.495 43.165 140.421 44.5975 151.16Z" fill="#E1DCEB"/>
<path fill-rule="evenodd" clip-rule="evenodd" d="M99.3679 162.037C99.3679 153.429 105.677 147.133 112.655 147.133C119.633 147.133 125.943 153.429 125.943 162.037H134.943C134.943 149.212 125.325 138.133 112.655 138.133C99.9858 138.133 90.3679 149.212 90.3679 162.037H99.3679Z" fill="white"/>
<path d="M88.3999 137.782C92.8652 137.782 96.4851 134.162 96.4851 129.696C96.4851 125.231 92.8652 121.611 88.3999 121.611C83.9346 121.611 80.3147 125.231 80.3147 129.696C80.3147 134.162 83.9346 137.782 88.3999 137.782Z" fill="white"/>
<path d="M136.911 137.781C141.376 137.781 144.996 134.162 144.996 129.696C144.996 125.231 141.376 121.611 136.911 121.611C132.446 121.611 128.826 125.231 128.826 129.696C128.826 134.162 132.446 137.781 136.911 137.781Z" fill="white"/>
</svg>
