<svg xmlns="http://www.w3.org/2000/svg" width="300" height="300" fill="none"><g clip-path="url(#a)"><path fill="url(#b)" d="M150 269c66.274 0 120-53.726 120-120S216.274 29 150 29 30 82.726 30 149s53.726 120 120 120Z"/><g filter="url(#c)"><rect width="124.537" height="155.029" x="89" y="63.556" fill="#fff" rx="16"/></g><rect width="50" height="9.8" x="100" y="83.556" fill="#011625" rx="4.9"/><rect width="100" height="9.8" x="100" y="111.356" fill="#D5D5D5" rx="4.9"/><rect width="100" height="9.8" x="100" y="139.156" fill="#D5D5D5" rx="4.9"/><rect width="100" height="9.8" x="100" y="166.956" fill="#D5D5D5" rx="4.9"/><rect width="100" height="9.8" x="100" y="194.756" fill="#D5D5D5" rx="4.9"/><g filter="url(#d)"><path fill="#fff" d="M288.15 46.424h-60.081c-2.799 0-5.069 2.389-5.069 5.335v29.719c0 2.946 2.27 5.335 5.069 5.335h60.081c2.799 0 5.069-2.389 5.069-5.335v-29.72c0-2.946-2.27-5.334-5.069-5.334Z"/></g><path fill="#CCC6D9" d="M238 73a6 6 0 1 0 0-12 6 6 0 0 0 0 12Z"/><rect width="32" height="12" x="252" y="61" fill="#D5D5D5" rx="6"/><path fill="#CCC6D9" fill-rule="evenodd" d="M185.11 225.563c12.88 0 24.849-3.896 34.795-10.574l40.7 38.852 14.76-17.125-39.273-37.49c7.253-10.208 11.518-22.687 11.518-36.163 0-34.517-27.983-62.5-62.5-62.5-34.518 0-62.5 27.983-62.5 62.5 0 34.518 27.982 62.5 62.5 62.5Zm53.309-62.5c0 29.224-23.69 52.914-52.914 52.914-29.223 0-52.913-23.69-52.913-52.914 0-29.223 23.69-52.913 52.913-52.913 29.224 0 52.914 23.69 52.914 52.913Z" clip-rule="evenodd"/><g filter="url(#e)"><path fill="#fff" fill-opacity=".3" d="M185.5 217c30.1 0 54.5-24.177 54.5-54s-24.4-54-54.5-54-54.5 24.177-54.5 54 24.4 54 54.5 54Z"/></g><path fill="#FF4040" d="m194.923 163 13.189-13.138a6.842 6.842 0 0 0-.136-9.575 6.932 6.932 0 0 0-4.789-2.011 6.937 6.937 0 0 0-4.845 1.875l-13.218 13.138-13.189-13.138a6.934 6.934 0 0 0-4.926-2.15 6.926 6.926 0 0 0-4.985 2.011 6.855 6.855 0 0 0-2.023 4.955 6.856 6.856 0 0 0 2.164 4.895L175.376 163l-13.211 13.138a6.856 6.856 0 0 0-2.164 4.895 6.855 6.855 0 0 0 2.023 4.955 6.942 6.942 0 0 0 9.911-.139l13.218-13.138 13.219 13.138a6.936 6.936 0 0 0 4.792 1.71 6.928 6.928 0 0 0 4.67-2.015 6.84 6.84 0 0 0 .278-9.406L194.923 163Z"/><path fill="#E1DCEB" d="m260.602 253.843 14.76-17.126 2.223 2.123c2.157 2.059 3.448 4.935 3.59 7.997.142 3.061-.878 6.056-2.834 8.326-1.957 2.27-4.69 3.629-7.599 3.778-2.909.149-5.755-.924-7.912-2.983l-2.223-2.122-.005.007Z"/><path fill="#011625" fill-rule="evenodd" d="M56.314 91.172a18.962 18.962 0 0 0-.555-4.313c-1.255-5.082-6.853-8.345-12.81-9.112-5.956-.767-12.15.979-14.537 5.4-1.365 2.527-1.553 4.706-.995 6.542.555 1.827 1.873 3.341 3.662 4.522 4.989 3.287 13.724 3.958 17.71 2.584a44.618 44.618 0 0 0 5.397-2.282c-1.002 5.746-4.738 11.189-9.724 16.094-10.836 10.661-27.65 18.753-36.807 21.728-.492.16-.766.705-.613 1.219.154.514.676.802 1.168.642 9.338-3.034 26.48-11.298 37.53-22.17 5.709-5.615 9.776-11.937 10.47-18.582 12.906-7.202 23.503-20.267 32.564-31.263a1.004 1.004 0 0 0-.099-1.374.907.907 0 0 0-1.316.103C78.67 71.456 68.581 84 56.314 91.172Zm-1.876 1.045c.071-1.603-.08-3.231-.487-4.873-1.085-4.4-6.073-7-11.231-7.664-3.161-.406-6.412-.071-8.962 1.118-1.603.748-2.924 1.832-3.72 3.308-1.044 1.934-1.27 3.59-.842 4.993.428 1.414 1.493 2.55 2.88 3.462 4.545 2.997 12.499 3.634 16.127 2.382a43.903 43.903 0 0 0 6.235-2.726Z" clip-rule="evenodd"/><circle cx="285" cy="184" r="6" fill="#417BA4"/><path fill="#417BA4" fill-rule="evenodd" d="M58.385 225.394c1.07-.401 2.197-.935 3.066-1.708 1.032-.917 1.452-2.099 1.733-3.343.362-1.599.507-3.301.946-4.902.162-.595.475-.82.609-.919.34-.252.682-.32 1.004-.294.382.029.907.181 1.253.855.049.097.113.244.156.445.031.148.052.609.085.8.083.469.152.938.218 1.409.217 1.569.342 2.902 1.028 4.344.931 1.957 1.864 3.154 3.13 3.685 1.223.513 2.685.416 4.554.014a8.17 8.17 0 0 1 .528-.116c.824-.151 1.612.418 1.774 1.282.162.863-.362 1.704-1.179 1.894-.17.04-.338.077-.504.112-2.526.658-5.45 3.006-7.149 5.062-.523.634-1.29 2.407-2.072 3.537-.577.835-1.226 1.384-1.77 1.579a1.52 1.52 0 0 1-.927.044 1.563 1.563 0 0 1-.911-.641 1.86 1.86 0 0 1-.304-.742c-.027-.151-.03-.534-.03-.708-.158-.577-.354-1.14-.496-1.722-.339-1.39-1.004-2.269-1.794-3.431-.74-1.087-1.533-1.771-2.697-2.316-.151-.039-1.373-.354-1.804-.534-.63-.265-.93-.709-1.04-.948a1.9 1.9 0 0 1-.167-1.055c.055-.436.24-.809.57-1.11.205-.187.51-.369.919-.458.315-.069 1.153-.109 1.27-.115Zm7.166-2.264c.056.133.117.266.18.401 1.364 2.866 2.89 4.467 4.743 5.243l.062.025c-1.24.969-2.363 2.052-3.22 3.09-.354.428-.821 1.316-1.327 2.226-.459-1.57-1.21-2.68-2.153-4.07-.722-1.06-1.477-1.858-2.406-2.508a10.6 10.6 0 0 0 2.007-1.377c.997-.887 1.656-1.914 2.114-3.03Z" clip-rule="evenodd"/></g><defs><filter id="c" width="184.537" height="215.029" x="59" y="53.556" color-interpolation-filters="sRGB" filterUnits="userSpaceOnUse"><feFlood flood-opacity="0" result="BackgroundImageFix"/><feColorMatrix in="SourceAlpha" result="hardAlpha" values="0 0 0 0 0 0 0 0 0 0 0 0 0 0 0 0 0 0 127 0"/><feOffset dy="20"/><feGaussianBlur stdDeviation="15"/><feComposite in2="hardAlpha" operator="out"/><feColorMatrix values="0 0 0 0 0.570833 0 0 0 0 0.570833 0 0 0 0 0.570833 0 0 0 0.19 0"/><feBlend in2="BackgroundImageFix" result="effect1_dropShadow_1216_4916"/><feBlend in="SourceGraphic" in2="effect1_dropShadow_1216_4916" result="shape"/></filter><filter id="d" width="96.219" height="66.389" x="216" y="37.424" color-interpolation-filters="sRGB" filterUnits="userSpaceOnUse"><feFlood flood-opacity="0" result="BackgroundImageFix"/><feColorMatrix in="SourceAlpha" result="hardAlpha" values="0 0 0 0 0 0 0 0 0 0 0 0 0 0 0 0 0 0 127 0"/><feOffset dx="6" dy="4"/><feGaussianBlur stdDeviation="6.5"/><feComposite in2="hardAlpha" operator="out"/><feColorMatrix values="0 0 0 0 0.104618 0 0 0 0 0.465612 0 0 0 0 0.545833 0 0 0 0.09 0"/><feBlend in2="BackgroundImageFix" result="effect1_dropShadow_1216_4916"/><feBlend in="SourceGraphic" in2="effect1_dropShadow_1216_4916" result="shape"/></filter><filter id="e" width="125" height="124" x="123" y="101" color-interpolation-filters="sRGB" filterUnits="userSpaceOnUse"><feFlood flood-opacity="0" result="BackgroundImageFix"/><feGaussianBlur in="BackgroundImageFix" stdDeviation="4"/><feComposite in2="SourceAlpha" operator="in" result="effect1_backgroundBlur_1216_4916"/><feBlend in="SourceGraphic" in2="effect1_backgroundBlur_1216_4916" result="shape"/></filter><linearGradient id="b" x1="149.075" x2="151.533" y1="-10.075" y2="411.347" gradientUnits="userSpaceOnUse"><stop stop-color="#F2F2F2"/><stop offset="1" stop-color="#EFEFEF"/></linearGradient><clipPath id="a"><path fill="#fff" d="M0 0h300v300H0z"/></clipPath></defs></svg>